<mxfile host="app.diagrams.net" modified="2023-02-22T14:33:59.274Z" agent="5.0 (Windows NT 10.0; Win64; x64) AppleWebKit/537.36 (KHTML, like Gecko) Chrome/110.0.0.0 Safari/537.36" etag="IlJOUCFhV31xaGSaYlen" version="20.8.22" type="github">
  <diagram name="第 1 页" id="P9t2RC2k75KREn3W-97-">
    <mxGraphModel dx="2504" dy="1162" grid="1" gridSize="10" guides="1" tooltips="1" connect="1" arrows="1" fold="1" page="0" pageScale="1" pageWidth="827" pageHeight="1169" math="0" shadow="0">
      <root>
        <mxCell id="0" />
        <mxCell id="1" parent="0" />
        <mxCell id="U00k44nBWP5hFbAEq7iG-27" value="墨卡托/像素/世界空间" style="whiteSpace=wrap;html=1;aspect=fixed;fontSize=15;" vertex="1" parent="1">
          <mxGeometry x="-800" y="80" width="200" height="200" as="geometry" />
        </mxCell>
        <mxCell id="hXN5MZDR5_vwzj8-u30s-7" style="edgeStyle=none;curved=1;rounded=0;orthogonalLoop=1;jettySize=auto;html=1;fontSize=12;startSize=8;endSize=8;" parent="1" source="hXN5MZDR5_vwzj8-u30s-1" target="hXN5MZDR5_vwzj8-u30s-3" edge="1">
          <mxGeometry relative="1" as="geometry" />
        </mxCell>
        <mxCell id="hXN5MZDR5_vwzj8-u30s-1" value="世界空间" style="rounded=1;whiteSpace=wrap;html=1;fontSize=16;" parent="1" vertex="1">
          <mxGeometry x="-80" y="120" width="120" height="40" as="geometry" />
        </mxCell>
        <mxCell id="hXN5MZDR5_vwzj8-u30s-8" value="&lt;font style=&quot;font-size: 12px;&quot;&gt;&lt;b&gt;&lt;br&gt;&lt;/b&gt;&lt;/font&gt;" style="edgeStyle=none;curved=1;rounded=0;orthogonalLoop=1;jettySize=auto;html=1;fontSize=12;startSize=8;endSize=8;" parent="1" source="hXN5MZDR5_vwzj8-u30s-2" edge="1">
          <mxGeometry relative="1" as="geometry">
            <mxPoint x="160" y="220" as="targetPoint" />
          </mxGeometry>
        </mxCell>
        <mxCell id="hXN5MZDR5_vwzj8-u30s-2" value="公共空间" style="rounded=1;whiteSpace=wrap;html=1;fontSize=16;" parent="1" vertex="1">
          <mxGeometry x="-40" y="200" width="120" height="40" as="geometry" />
        </mxCell>
        <mxCell id="hXN5MZDR5_vwzj8-u30s-9" style="edgeStyle=none;curved=1;rounded=0;orthogonalLoop=1;jettySize=auto;html=1;fontSize=12;startSize=8;endSize=8;" parent="1" source="hXN5MZDR5_vwzj8-u30s-3" target="hXN5MZDR5_vwzj8-u30s-6" edge="1">
          <mxGeometry relative="1" as="geometry" />
        </mxCell>
        <mxCell id="hXN5MZDR5_vwzj8-u30s-3" value="公共空间" style="rounded=1;whiteSpace=wrap;html=1;fontSize=16;" parent="1" vertex="1">
          <mxGeometry x="120" y="120" width="120" height="40" as="geometry" />
        </mxCell>
        <mxCell id="hXN5MZDR5_vwzj8-u30s-10" style="edgeStyle=none;curved=1;rounded=0;orthogonalLoop=1;jettySize=auto;html=1;fontSize=12;startSize=8;endSize=8;" parent="1" source="hXN5MZDR5_vwzj8-u30s-4" target="hXN5MZDR5_vwzj8-u30s-5" edge="1">
          <mxGeometry relative="1" as="geometry" />
        </mxCell>
        <mxCell id="hXN5MZDR5_vwzj8-u30s-4" value="世界空间" style="rounded=1;whiteSpace=wrap;html=1;fontSize=16;" parent="1" vertex="1">
          <mxGeometry x="160" y="200" width="120" height="40" as="geometry" />
        </mxCell>
        <mxCell id="hXN5MZDR5_vwzj8-u30s-5" value="观测空间" style="rounded=1;whiteSpace=wrap;html=1;fontSize=16;" parent="1" vertex="1">
          <mxGeometry x="360" y="200" width="120" height="40" as="geometry" />
        </mxCell>
        <mxCell id="hXN5MZDR5_vwzj8-u30s-6" value="" style="rounded=1;whiteSpace=wrap;html=1;fontSize=16;" parent="1" vertex="1">
          <mxGeometry x="320" y="120" width="120" height="40" as="geometry" />
        </mxCell>
        <mxCell id="hXN5MZDR5_vwzj8-u30s-11" value="模型矩阵" style="text;html=1;strokeColor=none;fillColor=none;align=center;verticalAlign=middle;whiteSpace=wrap;rounded=0;fontSize=12;" parent="1" vertex="1">
          <mxGeometry x="80" y="200" width="60" height="30" as="geometry" />
        </mxCell>
        <mxCell id="hXN5MZDR5_vwzj8-u30s-13" value="观测矩阵" style="text;html=1;strokeColor=none;fillColor=none;align=center;verticalAlign=middle;whiteSpace=wrap;rounded=0;fontSize=12;" parent="1" vertex="1">
          <mxGeometry x="290" y="200" width="60" height="30" as="geometry" />
        </mxCell>
        <mxCell id="hXN5MZDR5_vwzj8-u30s-14" value="DeckGL" style="text;html=1;align=center;verticalAlign=middle;resizable=0;points=[];autosize=1;strokeColor=none;fillColor=none;fontSize=12;" parent="1" vertex="1">
          <mxGeometry x="-170" y="125" width="70" height="30" as="geometry" />
        </mxCell>
        <mxCell id="hXN5MZDR5_vwzj8-u30s-19" value="变换" style="rounded=1;whiteSpace=wrap;html=1;fontSize=12;" parent="1" vertex="1">
          <mxGeometry x="-240" y="200" width="120" height="40" as="geometry" />
        </mxCell>
        <mxCell id="hXN5MZDR5_vwzj8-u30s-20" value="" style="endArrow=classic;html=1;rounded=0;fontSize=12;startSize=8;endSize=8;curved=1;exitX=1;exitY=0.5;exitDx=0;exitDy=0;" parent="1" source="hXN5MZDR5_vwzj8-u30s-19" target="hXN5MZDR5_vwzj8-u30s-2" edge="1">
          <mxGeometry width="50" height="50" relative="1" as="geometry">
            <mxPoint x="-10" y="140" as="sourcePoint" />
            <mxPoint x="40" y="90" as="targetPoint" />
          </mxGeometry>
        </mxCell>
        <mxCell id="hXN5MZDR5_vwzj8-u30s-36" style="edgeStyle=none;curved=1;rounded=0;orthogonalLoop=1;jettySize=auto;html=1;entryX=1;entryY=0.5;entryDx=0;entryDy=0;fontSize=12;startSize=8;endSize=8;" parent="1" source="hXN5MZDR5_vwzj8-u30s-31" target="hXN5MZDR5_vwzj8-u30s-33" edge="1">
          <mxGeometry relative="1" as="geometry" />
        </mxCell>
        <mxCell id="hXN5MZDR5_vwzj8-u30s-31" value="&lt;font style=&quot;font-size: 16px;&quot;&gt;view&lt;/font&gt;" style="rounded=1;whiteSpace=wrap;html=1;fontSize=12;" parent="1" vertex="1">
          <mxGeometry x="-240" y="520" width="120" height="40" as="geometry" />
        </mxCell>
        <mxCell id="hXN5MZDR5_vwzj8-u30s-34" style="edgeStyle=none;curved=1;rounded=0;orthogonalLoop=1;jettySize=auto;html=1;entryX=1;entryY=0.5;entryDx=0;entryDy=0;fontSize=16;startSize=8;endSize=8;" parent="1" source="hXN5MZDR5_vwzj8-u30s-32" target="hXN5MZDR5_vwzj8-u30s-31" edge="1">
          <mxGeometry relative="1" as="geometry" />
        </mxCell>
        <mxCell id="hXN5MZDR5_vwzj8-u30s-32" value="&lt;font style=&quot;font-size: 16px;&quot;&gt;viewState&lt;/font&gt;" style="rounded=1;whiteSpace=wrap;html=1;fontSize=12;" parent="1" vertex="1">
          <mxGeometry x="-40" y="520" width="120" height="40" as="geometry" />
        </mxCell>
        <mxCell id="hXN5MZDR5_vwzj8-u30s-33" value="&lt;font style=&quot;font-size: 16px;&quot;&gt;viewPort&lt;/font&gt;" style="rounded=1;whiteSpace=wrap;html=1;fontSize=12;" parent="1" vertex="1">
          <mxGeometry x="-440" y="520" width="120" height="40" as="geometry" />
        </mxCell>
        <mxCell id="hXN5MZDR5_vwzj8-u30s-35" value="&lt;font style=&quot;font-size: 12px;&quot;&gt;状态更新&lt;/font&gt;" style="text;html=1;align=center;verticalAlign=middle;resizable=0;points=[];autosize=1;strokeColor=none;fillColor=none;fontSize=16;" parent="1" vertex="1">
          <mxGeometry x="-110" y="515" width="70" height="30" as="geometry" />
        </mxCell>
        <mxCell id="hXN5MZDR5_vwzj8-u30s-37" value="创建" style="text;html=1;align=center;verticalAlign=middle;resizable=0;points=[];autosize=1;strokeColor=none;fillColor=none;fontSize=12;" parent="1" vertex="1">
          <mxGeometry x="-300" y="515" width="50" height="30" as="geometry" />
        </mxCell>
        <mxCell id="hXN5MZDR5_vwzj8-u30s-39" style="edgeStyle=none;curved=1;rounded=0;orthogonalLoop=1;jettySize=auto;html=1;fontSize=16;startSize=8;endSize=8;" parent="1" source="hXN5MZDR5_vwzj8-u30s-38" target="hXN5MZDR5_vwzj8-u30s-32" edge="1">
          <mxGeometry relative="1" as="geometry" />
        </mxCell>
        <mxCell id="hXN5MZDR5_vwzj8-u30s-38" value="&lt;font style=&quot;font-size: 16px;&quot;&gt;initialViewState&lt;/font&gt;" style="rounded=1;whiteSpace=wrap;html=1;fontSize=12;" parent="1" vertex="1">
          <mxGeometry x="160" y="520" width="120" height="40" as="geometry" />
        </mxCell>
        <mxCell id="hXN5MZDR5_vwzj8-u30s-40" value="&lt;font style=&quot;font-size: 12px;&quot;&gt;初始状态&lt;/font&gt;" style="text;html=1;align=center;verticalAlign=middle;resizable=0;points=[];autosize=1;strokeColor=none;fillColor=none;fontSize=16;" parent="1" vertex="1">
          <mxGeometry x="90" y="515" width="70" height="30" as="geometry" />
        </mxCell>
        <mxCell id="U00k44nBWP5hFbAEq7iG-1" value="etc." style="text;html=1;align=center;verticalAlign=middle;resizable=0;points=[];autosize=1;strokeColor=none;fillColor=none;fontSize=16;" vertex="1" parent="1">
          <mxGeometry x="-450" y="760" width="50" height="30" as="geometry" />
        </mxCell>
        <mxCell id="U00k44nBWP5hFbAEq7iG-4" style="edgeStyle=none;curved=1;rounded=0;orthogonalLoop=1;jettySize=auto;html=1;fontSize=12;startSize=8;endSize=8;" edge="1" parent="1" source="U00k44nBWP5hFbAEq7iG-2" target="U00k44nBWP5hFbAEq7iG-3">
          <mxGeometry relative="1" as="geometry" />
        </mxCell>
        <mxCell id="U00k44nBWP5hFbAEq7iG-2" value="new DeckGL" style="rounded=1;whiteSpace=wrap;html=1;fontSize=16;" vertex="1" parent="1">
          <mxGeometry x="-400" y="840" width="120" height="40" as="geometry" />
        </mxCell>
        <mxCell id="U00k44nBWP5hFbAEq7iG-6" style="edgeStyle=none;curved=1;rounded=0;orthogonalLoop=1;jettySize=auto;html=1;fontSize=12;startSize=8;endSize=8;" edge="1" parent="1" source="U00k44nBWP5hFbAEq7iG-3" target="U00k44nBWP5hFbAEq7iG-5">
          <mxGeometry relative="1" as="geometry" />
        </mxCell>
        <mxCell id="U00k44nBWP5hFbAEq7iG-3" value="new Mapview" style="rounded=1;whiteSpace=wrap;html=1;fontSize=16;" vertex="1" parent="1">
          <mxGeometry x="-200" y="840" width="120" height="40" as="geometry" />
        </mxCell>
        <mxCell id="U00k44nBWP5hFbAEq7iG-5" value="new webMercatorViewport&amp;nbsp;" style="rounded=1;whiteSpace=wrap;html=1;fontSize=16;" vertex="1" parent="1">
          <mxGeometry y="840" width="240" height="40" as="geometry" />
        </mxCell>
        <mxCell id="U00k44nBWP5hFbAEq7iG-11" style="edgeStyle=none;curved=1;rounded=0;orthogonalLoop=1;jettySize=auto;html=1;entryX=0.5;entryY=0;entryDx=0;entryDy=0;fontSize=12;startSize=8;endSize=8;" edge="1" parent="1" source="U00k44nBWP5hFbAEq7iG-10" target="U00k44nBWP5hFbAEq7iG-3">
          <mxGeometry relative="1" as="geometry" />
        </mxCell>
        <mxCell id="U00k44nBWP5hFbAEq7iG-12" value="extends" style="edgeLabel;html=1;align=center;verticalAlign=middle;resizable=0;points=[];fontSize=16;" vertex="1" connectable="0" parent="U00k44nBWP5hFbAEq7iG-11">
          <mxGeometry x="-0.35" y="-1" relative="1" as="geometry">
            <mxPoint x="1" y="14" as="offset" />
          </mxGeometry>
        </mxCell>
        <mxCell id="U00k44nBWP5hFbAEq7iG-10" value="View" style="rounded=1;whiteSpace=wrap;html=1;fontSize=16;" vertex="1" parent="1">
          <mxGeometry x="-200" y="720" width="120" height="40" as="geometry" />
        </mxCell>
        <mxCell id="U00k44nBWP5hFbAEq7iG-15" style="edgeStyle=none;curved=1;rounded=0;orthogonalLoop=1;jettySize=auto;html=1;entryX=0.5;entryY=0;entryDx=0;entryDy=0;fontSize=12;startSize=8;endSize=8;" edge="1" parent="1" source="U00k44nBWP5hFbAEq7iG-17" target="U00k44nBWP5hFbAEq7iG-5">
          <mxGeometry relative="1" as="geometry">
            <mxPoint x="125" y="840" as="targetPoint" />
          </mxGeometry>
        </mxCell>
        <mxCell id="U00k44nBWP5hFbAEq7iG-16" value="extends" style="edgeLabel;html=1;align=center;verticalAlign=middle;resizable=0;points=[];fontSize=16;" vertex="1" connectable="0" parent="U00k44nBWP5hFbAEq7iG-15">
          <mxGeometry x="-0.35" y="-1" relative="1" as="geometry">
            <mxPoint x="1" y="14" as="offset" />
          </mxGeometry>
        </mxCell>
        <mxCell id="U00k44nBWP5hFbAEq7iG-17" value="viewPort" style="rounded=1;whiteSpace=wrap;html=1;fontSize=16;" vertex="1" parent="1">
          <mxGeometry x="60" y="720" width="120" height="40" as="geometry" />
        </mxCell>
        <mxCell id="U00k44nBWP5hFbAEq7iG-18" value="default" style="text;html=1;align=center;verticalAlign=middle;resizable=0;points=[];autosize=1;strokeColor=none;fillColor=none;fontSize=16;" vertex="1" parent="1">
          <mxGeometry x="-280" y="835" width="70" height="30" as="geometry" />
        </mxCell>
        <mxCell id="U00k44nBWP5hFbAEq7iG-20" value="" style="endArrow=classic;html=1;rounded=0;fontSize=11;startSize=8;endSize=8;curved=1;" edge="1" parent="1">
          <mxGeometry width="50" height="50" relative="1" as="geometry">
            <mxPoint x="-800" y="80" as="sourcePoint" />
            <mxPoint x="-600" y="80" as="targetPoint" />
          </mxGeometry>
        </mxCell>
        <mxCell id="U00k44nBWP5hFbAEq7iG-21" value="" style="endArrow=classic;html=1;rounded=0;fontSize=11;startSize=8;endSize=8;curved=1;entryX=0;entryY=1;entryDx=0;entryDy=0;" edge="1" parent="1" target="U00k44nBWP5hFbAEq7iG-27">
          <mxGeometry width="50" height="50" relative="1" as="geometry">
            <mxPoint x="-800" y="80" as="sourcePoint" />
            <mxPoint x="-800" y="240" as="targetPoint" />
          </mxGeometry>
        </mxCell>
        <mxCell id="U00k44nBWP5hFbAEq7iG-22" value="&lt;b&gt;&lt;font style=&quot;font-size: 15px;&quot;&gt;（0,0）&lt;/font&gt;&lt;/b&gt;" style="text;html=1;align=center;verticalAlign=middle;resizable=0;points=[];autosize=1;strokeColor=none;fillColor=none;fontSize=11;" vertex="1" parent="1">
          <mxGeometry x="-850" y="60" width="70" height="30" as="geometry" />
        </mxCell>
        <mxCell id="U00k44nBWP5hFbAEq7iG-23" value="&lt;b style=&quot;border-color: var(--border-color); color: rgb(0, 0, 0); font-family: Helvetica; font-size: 11px; font-style: normal; font-variant-ligatures: normal; font-variant-caps: normal; letter-spacing: normal; orphans: 2; text-align: center; text-indent: 0px; text-transform: none; widows: 2; word-spacing: 0px; -webkit-text-stroke-width: 0px; background-color: rgb(255, 255, 255); text-decoration-thickness: initial; text-decoration-style: initial; text-decoration-color: initial;&quot;&gt;&lt;font style=&quot;border-color: var(--border-color); font-size: 15px;&quot;&gt;（256,0）&lt;/font&gt;&lt;/b&gt;" style="text;whiteSpace=wrap;html=1;fontSize=15;" vertex="1" parent="1">
          <mxGeometry x="-630" y="50" width="80" height="40" as="geometry" />
        </mxCell>
        <mxCell id="U00k44nBWP5hFbAEq7iG-24" value="&lt;b style=&quot;border-color: var(--border-color); color: rgb(0, 0, 0); font-family: Helvetica; font-style: normal; font-variant-ligatures: normal; font-variant-caps: normal; letter-spacing: normal; orphans: 2; text-indent: 0px; text-transform: none; widows: 2; word-spacing: 0px; -webkit-text-stroke-width: 0px; text-decoration-thickness: initial; text-decoration-style: initial; text-decoration-color: initial; font-size: 11px; text-align: center; background-color: rgb(255, 255, 255);&quot;&gt;&lt;font style=&quot;border-color: var(--border-color); font-size: 15px;&quot;&gt;(0,256）&lt;/font&gt;&lt;/b&gt;" style="text;whiteSpace=wrap;html=1;fontSize=15;" vertex="1" parent="1">
          <mxGeometry x="-865" y="250" width="100" height="40" as="geometry" />
        </mxCell>
        <mxCell id="U00k44nBWP5hFbAEq7iG-25" value="web墨卡托的坐标范围，有些地方为512x512" style="text;html=1;strokeColor=none;fillColor=none;align=center;verticalAlign=middle;whiteSpace=wrap;rounded=0;fontSize=15;" vertex="1" parent="1">
          <mxGeometry x="-800" width="190" height="30" as="geometry" />
        </mxCell>
        <mxCell id="U00k44nBWP5hFbAEq7iG-26" value="" style="image;html=1;image=img/lib/clip_art/general/Earth_globe_128x128.png;fontSize=15;" vertex="1" parent="1">
          <mxGeometry x="-1120" y="125" width="130" height="100" as="geometry" />
        </mxCell>
        <mxCell id="U00k44nBWP5hFbAEq7iG-28" value="" style="shape=flexArrow;endArrow=classic;html=1;rounded=0;fontSize=15;startSize=8;endSize=8;curved=1;exitX=1;exitY=0.5;exitDx=0;exitDy=0;" edge="1" parent="1" source="U00k44nBWP5hFbAEq7iG-26">
          <mxGeometry width="50" height="50" relative="1" as="geometry">
            <mxPoint x="-700" y="230" as="sourcePoint" />
            <mxPoint x="-830" y="175" as="targetPoint" />
          </mxGeometry>
        </mxCell>
        <mxCell id="U00k44nBWP5hFbAEq7iG-29" value="将经纬度坐标转化为墨卡托坐标的空间，可以理解为常见渲染引擎中的世界坐标(空间），这样后面就&lt;br&gt;可以将数据直接通过视图矩阵和投影矩阵变换导裁剪空间了" style="text;html=1;align=center;verticalAlign=middle;resizable=0;points=[];autosize=1;strokeColor=none;fillColor=none;fontSize=15;" vertex="1" parent="1">
          <mxGeometry x="-1125" y="340" width="690" height="50" as="geometry" />
        </mxCell>
        <mxCell id="U00k44nBWP5hFbAEq7iG-31" value="变换/投影" style="text;html=1;align=center;verticalAlign=middle;resizable=0;points=[];autosize=1;strokeColor=none;fillColor=none;fontSize=15;" vertex="1" parent="1">
          <mxGeometry x="-960" y="140" width="90" height="30" as="geometry" />
        </mxCell>
        <mxCell id="U00k44nBWP5hFbAEq7iG-32" value="上面的情况为输入的数据是地理坐标的情况下，而需要采样web墨卡托坐标来计算后，绘制在屏幕中&lt;br&gt;如果输入的数据直接就是web墨卡托的话就可以直接" style="text;html=1;align=center;verticalAlign=middle;resizable=0;points=[];autosize=1;strokeColor=none;fillColor=none;fontSize=15;" vertex="1" parent="1">
          <mxGeometry x="-1115" y="400" width="680" height="50" as="geometry" />
        </mxCell>
        <mxCell id="U00k44nBWP5hFbAEq7iG-33" value="投影到的画布的大小" style="text;html=1;strokeColor=none;fillColor=none;align=center;verticalAlign=middle;whiteSpace=wrap;rounded=0;fontSize=15;" vertex="1" parent="1">
          <mxGeometry x="-775" y="132.5" width="150" height="15" as="geometry" />
        </mxCell>
      </root>
    </mxGraphModel>
  </diagram>
</mxfile>
